<?xml version="1.0" encoding="utf-8"?>
<!-- Generator: Adobe Illustrator 27.8.0, SVG Export Plug-In . SVG Version: 6.00 Build 0)  -->
<svg version="1.1" id="Layer_1" xmlns="http://www.w3.org/2000/svg" xmlns:xlink="http://www.w3.org/1999/xlink" x="0px" y="0px"
	 viewBox="0 0 1190.6 433.6" style="enable-background:new 0 0 1190.6 433.6;" xml:space="preserve">
<style type="text/css">
	.st0{fill:#FFFFFF;}
</style>
<g>
	<g>
		<path class="st0" d="M407.7,378.4c-1.1-86.7-2-170.2-2-256.5c0-58.8-50.6-104.9-109.2-99.4l-1,0.1V29c5.9,0.5,12.4,1.1,18.3,2.2
			c4.2,0.7,7.2,3.8,9.3,7c2.5,4,3.6,8.7,3.6,13.4l0.8,277.5c0.1,42.4,34.6,76.7,77,76.7h26.4v-6.4l-10.7-1.6
			C410.4,395.6,407.7,390.2,407.7,378.4z"/>
		<path class="st0" d="M873.3,377.4c-1.6-60.7-1.1-116-0.5-170.3c1.1-42.4-25.2-62.8-61.2-62.8c-35.4,0-63.4,18.3-78.4,26.9
			l-9.7,5.9c-3.9-18.2-21.3-30.3-39.7-27.8c-5.6,0.8-11.1,1.5-16.5,2.2c8.9,20.8,14,45.6,14,72.3c0,28.6-5.8,55-16,76.7
			c-11.5,24.8-34.6,42.7-61.7,46.3c-3,0.4-6,0.6-9,0.6c-44,0-72.7-24.7-83.1-69.8c45.6,0.5,141.6-1.9,141.6-1.9l1-16.8
			c3.9-65.9-35.8-115.1-103.5-115.1c-70,0-122.1,53.2-122.1,135.4c0,76.3,46.7,130.5,123.2,130.5c43.4,0,72.9-16.3,89.4-51.1
			c0.2-0.4,0.7-0.3,0.8,0.1c5,26.3,28.2,46.2,55.1,46.2h51.1v-6.4l-12.4-1.6c-8.6-2.1-11.8-7-12.4-18.8
			c-2.2-60.7-0.5-127.8,0.5-190.7c11.8-9.7,26.9-18.8,39.7-18.8c20.4,0,25.8,15.6,26.9,43c1.6,52.1,2.1,106.4,0,166
			c0,11.8-3.2,17.2-11.8,19.3l-12.9,1.6v6.4h129.4v-6.4l-10.2-1.6C877,394.6,873.3,389.7,873.3,377.4z M506.6,233.4
			c0-50.5,16.3-82.2,38-82.2c24.4,0,35.8,63.9,28.8,118.2c-20.6,1.1-41.3,1.1-63.5,1.1C507.7,259.2,506.6,246.8,506.6,233.4z"/>
		<path class="st0" d="M221.2,145.8c-24.7,0-47.2,8.6-77.3,26.3c0.2-16.7,0.6-33.4-0.1-50.2C141.3,61.2,93.6,16.9,35,22.4l-1,0.1V29
			c5.9,0.5,12.4,1.1,18.3,2.2c4.2,0.7,7.2,3.8,9.3,7c2.5,4,3.6,8.7,3.6,13.4l0.3,100.5h0c0,3.7,0,7.4,0.1,11.1l0.1,26.3h0
			c0.2,87.4-0.5,176.8-2.8,218.1h6.4l0.1-0.3c5.7-12.8,20.9-18.2,33.4-11.8c18.4,9.4,42.3,15.8,68,15.8c80,0,134.3-56.4,134.3-154.7
			C305,188.2,274.9,145.8,221.2,145.8z M180.4,403.6c-23.6,0-36.5-27.4-36.5-63.4v-16.6V189.3c0-2.5,0-5,0-7.5
			c11.3-7.5,19.9-11.3,29.5-11.3c32.8,0,48.3,41.4,48.3,118.2C221.7,374.1,205.6,403.6,180.4,403.6z"/>
		<path class="st0" d="M1146.9,391.3c-9.7-2.1-15-4.8-15.6-17.7c-0.3-37.1,0-124.7,0.3-202.5c0.2-16.3,0.6-32.7-0.1-49.2
			c-2.5-60.7-50.3-104.9-108.9-99.4l-1,0.1V29c5.9,0.5,11.6,1.1,17.5,2.2c4.2,0.7,7.2,3.8,9.3,7c2.5,4,3.6,8.7,3.6,13.4l0.3,101.3
			c-10.2-4.3-22-7-33.8-7c-73,0-125.7,51.6-125.7,143.4c0,67.7,33.8,122.5,92.4,122.5c22.7,0,40.6-8.6,56.2-20.1
			c6.7-5,16-3.8,21.7,2.3c8.1,8.7,20.1,13.3,32.5,11.7c21.5-2.8,48.6-6.1,60.9-7.3v-6.4L1146.9,391.3z M1052.5,370.6
			c0,2.2-1.1,4.3-2.8,5.7c-8.5,6.5-15.8,9.6-24.1,9.6c-32.8,0-49.4-52.6-49.4-133.7c0-64.5,16.1-98.3,40.8-98.3
			c16.7,0,33.3,17.2,36,65C1053.5,277.8,1053,332.1,1052.5,370.6z"/>
	</g>
</g>
</svg>
