<?xml version="1.0" encoding="utf-8"?>
<!-- Generator: Adobe Illustrator 27.8.0, SVG Export Plug-In . SVG Version: 6.00 Build 0)  -->
<svg version="1.1" id="Layer_1" xmlns="http://www.w3.org/2000/svg" xmlns:xlink="http://www.w3.org/1999/xlink" x="0px" y="0px"
	 viewBox="0 0 1190.6 841.9" style="enable-background:new 0 0 1190.6 841.9;" xml:space="preserve">
<style type="text/css">
	.st0{fill:#33647E;}
</style>
<g>
	<g>
		<path class="st0" d="M407.6,518c-1.1-86.7-2-170.2-2-256.5c0-58.8-50.6-104.9-109.2-99.4l-1,0.1v6.4c5.9,0.5,12.4,1.1,18.3,2.2
			c4.2,0.7,7.2,3.8,9.3,7c2.5,4,3.6,8.7,3.6,13.4l0.8,277.5c0.1,42.4,34.6,76.7,77,76.7h26.4V539l-10.7-1.6
			C410.3,535.2,407.6,529.9,407.6,518z"/>
		<path class="st0" d="M873.1,517c-1.6-60.7-1.1-116-0.5-170.3c1.1-42.4-25.2-62.8-61.2-62.8c-35.4,0-63.4,18.3-78.4,26.9l-9.7,5.9
			c-3.9-18.2-21.3-30.3-39.7-27.8c-5.6,0.8-11.1,1.5-16.5,2.2c8.9,20.8,14,45.6,14,72.3c0,28.6-5.8,55-16,76.7
			c-11.5,24.8-34.6,42.7-61.7,46.3c-3,0.4-6,0.6-9,0.6c-44,0-72.7-24.7-83.1-69.8c45.6,0.5,141.6-1.9,141.6-1.9l1-16.8
			c3.9-65.9-35.8-115.1-103.5-115.1c-70,0-122.1,53.2-122.1,135.4c0,76.3,46.7,130.5,123.2,130.5c43.4,0,72.9-16.3,89.4-51.1
			c0.2-0.4,0.7-0.3,0.8,0.1c5,26.3,28.2,46.2,55.1,46.2H748V538l-12.4-1.6c-8.6-2.1-11.8-7-12.4-18.8c-2.2-60.7-0.5-127.8,0.5-190.7
			c11.8-9.7,26.9-18.8,39.7-18.8c20.4,0,25.8,15.6,26.9,43c1.6,52.1,2.1,106.4,0,166c0,11.8-3.2,17.2-11.8,19.3l-12.9,1.6v6.4h129.4
			V538l-10.2-1.6C876.9,534.2,873.1,529.4,873.1,517z M506.5,373.1c0-50.5,16.3-82.2,38-82.2c24.4,0,35.8,63.9,28.8,118.2
			c-20.6,1.1-41.3,1.1-63.5,1.1C507.5,398.9,506.5,386.5,506.5,373.1z"/>
		<path class="st0" d="M221.1,285.5c-24.7,0-47.2,8.6-77.3,26.3c0.2-16.7,0.6-33.4-0.1-50.2c-2.5-60.7-50.3-104.9-108.9-99.4l-1,0.1
			v6.4c5.9,0.5,12.4,1.1,18.3,2.2c4.2,0.7,7.2,3.8,9.3,7c2.5,4,3.6,8.7,3.6,13.4l0.3,100.5h0c0,3.7,0,7.4,0.1,11.1l0.1,26.3h0
			c0.2,87.4-0.5,176.8-2.8,218.1h6.4l0.1-0.3c5.7-12.8,20.9-18.2,33.4-11.8c18.4,9.4,42.3,15.8,68,15.8c80,0,134.3-56.4,134.3-154.7
			C304.9,327.9,274.8,285.5,221.1,285.5z M180.2,543.3c-23.6,0-36.5-27.4-36.5-63.4v-16.6V329c0-2.5,0-5,0-7.5
			c11.3-7.5,19.9-11.3,29.5-11.3c32.8,0,48.3,41.4,48.3,118.2C221.6,513.7,205.5,543.3,180.2,543.3z"/>
		<path class="st0" d="M1146.8,530.9c-9.7-2.1-15-4.8-15.6-17.7c-0.3-37.1,0-124.7,0.3-202.5c0.2-16.3,0.6-32.7-0.1-49.2
			c-2.5-60.7-50.3-104.9-108.9-99.4l-1,0.1v6.4c5.9,0.5,11.6,1.1,17.5,2.2c4.2,0.7,7.2,3.8,9.3,7c2.5,4,3.6,8.7,3.6,13.4l0.3,101.3
			c-10.2-4.3-22-7-33.8-7c-73,0-125.7,51.6-125.7,143.4c0,67.7,33.8,122.5,92.4,122.5c22.7,0,40.6-8.6,56.2-20.1
			c6.7-5,16-3.8,21.7,2.3c8.1,8.7,20.1,13.3,32.5,11.7c21.5-2.8,48.6-6.1,60.9-7.3v-6.4L1146.8,530.9z M1052.3,510.3
			c0,2.2-1.1,4.3-2.8,5.7c-8.5,6.5-15.8,9.6-24.1,9.6c-32.8,0-49.4-52.6-49.4-133.7c0-64.5,16.1-98.3,40.8-98.3
			c16.7,0,33.3,17.2,36,65C1053.3,417.4,1052.8,471.8,1052.3,510.3z"/>
	</g>
	<g>
		<g>
			<path class="st0" d="M105.4,680.7l-0.1-33.1l-14,28.5h-4.9l-14-28.5v33.1h-7v-44.3h8.9l14.6,29.4l14.5-29.4h8.8v44.3H105.4z"/>
			<path class="st0" d="M152.1,680.7v-44.3h7.5v44.3H152.1z"/>
			<path class="st0" d="M239.5,680.7h-8.9l-12-16.7l-11.9,16.7H198l16.1-22.7l-15-21.6h8.7l10.8,15.4l10.9-15.4h8.7l-14.9,21.3
				L239.5,680.7z"/>
			<path class="st0" d="M285.8,643.2v12h21.6v6.7h-21.6V674h24.9v6.7h-32.4v-44.3H310v6.7H285.8z"/>
			<path class="st0" d="M369.7,636.5c13.3,0,22.9,9.3,22.9,22.1c0,12.8-9.7,22.1-23.1,22.1h-18v-44.3H369.7z M359,674h10.9
				c8.6,0,15.2-6.4,15.2-15.4c0-9-6.8-15.5-15.5-15.5H359V674z"/>
			<path class="st0" d="M516.6,643.1l-4.4,5.4c-3.2-3.5-7.8-5.6-12.3-5.6c-8.9,0-15.8,6.8-15.8,15.6s7,15.6,15.8,15.6
				c4.4,0,9-2,12.3-5.2l4.4,4.9c-4.5,4.4-10.9,7.3-17.1,7.3c-13,0-23-9.8-23-22.5c0-12.6,10.2-22.3,23.3-22.3
				C506.1,636.3,512.3,638.9,516.6,643.1z"/>
			<path class="st0" d="M575.9,667.3c-0.6,0.1-1.3,0.1-2,0.1h-10.5v13.3h-7.5v-44.3h18c11.3,0,17.8,5.5,17.8,15.1
				c0,7.1-3.3,12.1-9.2,14.4l9.9,14.8H584L575.9,667.3z M573.9,660.7c6.8,0,10.8-2.9,10.8-8.9c0-5.8-3.9-8.6-10.8-8.6h-10.5v17.5
				H573.9z"/>
			<path class="st0" d="M640.8,643.2v12h21.6v6.7h-21.6V674h24.9v6.7h-32.4v-44.3H665v6.7H640.8z"/>
			<path class="st0" d="M712.8,670.7l-4.2,10h-7.8l19.5-44.3h7.7l19.4,44.3h-8l-4.2-10H712.8z M723.9,644.4l-8.4,19.7h16.7
				L723.9,644.4z"/>
			<path class="st0" d="M796.7,643.2v37.6h-7.5v-37.6h-14v-6.7h35.5v6.7H796.7z"/>
			<path class="st0" d="M848.8,680.7v-44.3h7.5v44.3H848.8z"/>
			<path class="st0" d="M911.6,680.7L894,636.5h8l13.7,36l13.8-36h7.8l-17.9,44.3H911.6z"/>
			<path class="st0" d="M974.9,680.7v-44.3h7.5v44.3H974.9z"/>
			<path class="st0" d="M1041.9,643.2v37.6h-7.5v-37.6h-14v-6.7h35.5v6.7H1041.9z"/>
			<path class="st0" d="M1112.1,680.7h-7.4v-14.5l-16.5-29.8h7.5l12.7,21.6l12.4-21.6h7.6l-16.3,29.5V680.7z"/>
		</g>
	</g>
</g>
</svg>
