<?xml version="1.0" encoding="UTF-8"?>
<svg id="Layer_1" xmlns="http://www.w3.org/2000/svg" version="1.1" viewBox="0 0 841.9 172.3">
  <!-- Generator: Adobe Illustrator 29.2.0, SVG Export Plug-In . SVG Version: 2.1.0 Build 108)  -->
  <defs>
    <style>
      .st0 {
        fill: #5eb0b8;
      }
    </style>
  </defs>
  <g>
    <path class="st0" d="M217.7,39.5c-8.9-.1-17.3,3.7-23.1,10.5-5.8-6.8-14.1-10.6-23.1-10.5-16.1.2-29.2,13.7-29.2,30.1v42.3c0,1.8,1.4,3.2,3.2,3.2h8.2c1.5,0,2.7-1.2,2.7-2.7v-43.2c0-8.4,6.9-15.4,15.3-15.6,4.1,0,8,1.5,11,4.5,3.1,3,4.8,7.2,4.8,11.4v42.9c0,1.5,1.2,2.7,2.7,2.7h8.6c1.5,0,2.7-1.2,2.7-2.7v-43.2c0-8.4,6.9-15.4,15.3-15.6,4.1,0,8,1.5,11,4.5,3.1,3,4.8,7.2,4.8,11.4v42.9c0,1.5,1.2,2.7,2.7,2.7h8.6c1.5,0,2.7-1.2,2.7-2.7v-42.8c0-16.3-13.1-29.8-29.2-30.1Z"/>
    <path class="st0" d="M321.3,50c-7.7-7.3-17.8-11-28.4-10.5-19.6,1-35.1,16.6-36.1,36.1-.6,10.6,3.1,20.7,10.5,28.4,7.3,7.7,17.2,12,27.8,12s20.9-4.5,28.1-12.3c.6-.6.9-1.5.8-2.4,0-.9-.5-1.7-1.2-2.2l-6-4.8c-1.3-1-3.1-.9-4.3.3-4.6,4.8-10.8,7.5-17.5,7.5-10.7,0-20.1-7-23.2-17.2h61.4v-7c0-10.6-4.2-20.5-12-27.8ZM271.9,70.8c3.1-10.2,12.5-17.2,23.2-17.2s20.1,7,23.2,17.2h-46.3Z"/>
    <path class="st0" d="M417.3,25.6h-7.7c-1.8,0-3.2,1.4-3.2,3.2v19.4c-6.8-5.6-15.4-8.6-24.2-8.6-21.1,0-38.3,17.2-38.3,38.3s17.2,38.3,38.3,38.3,17.4-3.1,24.2-8.6v4.5c0,1.8,1.4,3.2,3.2,3.2h7.7c1.8,0,3.2-1.4,3.2-3.2V28.8c0-1.8-1.4-3.2-3.2-3.2ZM406.4,77.8c0,13.3-10.9,24.2-24.2,24.2s-24.2-10.9-24.2-24.2,10.9-24.2,24.2-24.2,24.2,10.9,24.2,24.2Z"/>
    <g>
      <path class="st0" d="M514.3,39.6c-7.8.5-15,3.4-21.1,8.3v-5.2c0-1.8-1.4-3.2-3.2-3.2h-7.7c-1.8,0-3.2,1.4-3.2,3.2v69.2c0,1.8,1.4,3.2,3.2,3.2h7.7c1.8,0,3.2-1.4,3.2-3.2v-34.6c0-12.2,9.3-22.4,21.6-23.7,1.6-.2,2.9-1.5,2.9-3.2v-7.6c0-.9-.4-1.7-1-2.3-.6-.6-1.5-.9-2.4-.9Z"/>
      <path class="st0" d="M561.6,39.5c-21.1,0-38.3,17.2-38.3,38.3s17.2,38.3,38.3,38.3,38.3-17.2,38.3-38.3-17.2-38.3-38.3-38.3ZM585.8,77.8c0,13.3-10.9,24.2-24.2,24.2s-24.2-10.9-24.2-24.2,10.9-24.2,24.2-24.2,24.2,10.9,24.2,24.2Z"/>
      <path class="st0" d="M627.6,59.8c4.3-3.9,9.9-6.1,15.8-6.1,5.8,0,11.5,1.9,15.9,5.6,1.3,1.1,3.1,1,4.3-.2l5.5-5.5c.6-.6,1-1.5.9-2.4,0-.9-.4-1.7-1.1-2.3-7.2-6.3-16.5-9.6-26.2-9.4-9.2.2-18,3.8-24.8,10-8.3,7.6-12.9,18.5-12.5,29.8.3,9,3.8,17.6,9.9,24.2,7.2,8,17.6,12.6,28.4,12.6s18.2-3.3,25.1-9.4c.7-.6,1.1-1.4,1.1-2.3,0-.9-.3-1.7-.9-2.4l-5.5-5.5c-1.2-1.2-3-1.3-4.3-.2-4.9,4.1-11.2,6.1-17.7,5.5-6.4-.6-12.3-3.6-16.5-8.6-3.1-3.7-5-8.2-5.5-13.1-.7-7.8,2.2-15.3,8-20.5Z"/>
      <path class="st0" d="M819.6,39.6h-7.7c-1.8,0-3.2,1.4-3.2,3.2v5.9c-6.9-5.9-15.6-9.1-24.7-9.1-21.1,0-38.3,17.2-38.3,38.3s17.2,38.3,38.3,38.3,17.8-3.2,24.7-9.1v4.9c0,1.8,1.4,3.2,3.2,3.2h7.7c1.8,0,3.2-1.4,3.2-3.2V42.7c0-1.8-1.4-3.2-3.2-3.2ZM784,102c-13.3,0-24.2-10.9-24.2-24.2s10.9-24.2,24.2-24.2,24.2,10.9,24.2,24.2-10.9,24.2-24.2,24.2Z"/>
      <path class="st0" d="M697.7,59.8c4.3-3.9,9.9-6.1,15.8-6.1,5.8,0,11.5,1.9,15.9,5.6,1.3,1.1,3.1,1,4.3-.2l5.5-5.5c.6-.6,1-1.5.9-2.4,0-.9-.4-1.7-1.1-2.3-7.2-6.3-16.5-9.6-26.2-9.4-9.2.2-18,3.8-24.8,10-8.3,7.6-12.9,18.5-12.5,29.8.3,9,3.8,17.6,9.9,24.2,7.2,8,17.6,12.6,28.4,12.6s18.2-3.3,25.1-9.4c.7-.6,1.1-1.4,1.1-2.3,0-.9-.3-1.7-.9-2.4l-5.5-5.5c-1.2-1.2-3-1.3-4.3-.2-4.9,4.1-11.2,6.1-17.7,5.5-6.4-.6-12.3-3.6-16.5-8.6-3.1-3.7-5-8.2-5.5-13.1-.7-7.8,2.2-15.3,8-20.5Z"/>
    </g>
    <g>
      <path class="st0" d="M438.1,39.6h7.7c1.8,0,3.2,1.4,3.2,3.2v69.2c0,1.8-1.4,3.2-3.2,3.2h-7.7c-1.8,0-3.2-1.4-3.2-3.2V42.7c0-1.8,1.4-3.2,3.2-3.2Z"/>
      <path class="st0" d="M441.9,14.7c-4.7,0-8.5,3.8-8.5,8.5s3.8,8.5,8.5,8.5,8.5-3.8,8.5-8.5-3.8-8.5-8.5-8.5Z"/>
    </g>
  </g>
  <g>
    <path class="st0" d="M55,70.5h22.7l25.7-25.7c1.1-1.1,1.1-3,0-4.1l-7.3-7.3c-1.1-1.1-3-1.1-4.1,0l-25.7,25.7-25.7-25.7c-1.1-1.1-3-1.1-4.1,0l-7.3,7.3c-1.1,1.1-1.1,3,0,4.1l25.7,25.7Z"/>
    <g>
      <rect class="st0" x="19.1" y="62.5" width="94.4" height="16.1" rx="2.9" ry="2.9" transform="translate(132.7 141) rotate(180)"/>
      <path class="st0" d="M77.7,70.5h-22.7l-25.7,25.7c-1.1,1.1-1.1,3,0,4.1l7.3,7.3c1.1,1.1,3,1.1,4.1,0l25.7-25.7,25.7,25.7c1.1,1.1,3,1.1,4.1,0l7.3-7.3c1.1-1.1,1.1-3,0-4.1l-25.7-25.7Z"/>
    </g>
    <path class="st0" d="M66.4,117.7c4.9,0,8.9-4,8.9-8.9h0c0-4.9-4-8.9-8.9-8.9s-8.9,4-8.9,8.9h0c0,4.9,4,8.9,8.9,8.9Z"/>
    <path class="st0" d="M66.4,41.1c4.9,0,8.9-4,8.9-8.9h0c0-4.9-4-8.9-8.9-8.9s-8.9,4-8.9,8.9h0c0,4.9,4,8.9,8.9,8.9Z"/>
  </g>
  <g>
    <path class="st0" d="M36.9,154.9h-10.3v-17.3c0-.3-.2-.5-.5-.5h-1.5c-.3,0-.5.2-.5.5v19.2c0,.3.2.5.5.5h12.3c.3,0,.5-.2.5-.5v-1.4c0-.3-.2-.5-.5-.5Z"/>
    <path class="st0" d="M65.3,137.4c0-.2-.2-.3-.4-.3h-1.6c-.2,0-.4.1-.4.3l-8.6,19.2c0,.1,0,.3,0,.4,0,.1.2.2.4.2h1.6c.2,0,.4-.1.4-.3l2-4.4h10.9l2,4.4c0,.2.2.3.4.3h1.6c.2,0,.3,0,.4-.2,0-.1,0-.3,0-.4l-8.6-19.2ZM59.6,150.2l4.4-10.1,4.4,10.1h-8.9Z"/>
    <path class="st0" d="M135.2,137.1h-1.8c-.2,0-.3,0-.4.2l-6.9,10.6-7-10.6c0-.1-.2-.2-.4-.2h-1.8c-.3,0-.5.2-.5.5v19.2c0,.3.2.5.5.5h1.5c.3,0,.5-.2.5-.5v-15.5l6.6,10c0,.1.2.2.4.2h.5c.2,0,.3,0,.4-.2l6.5-9.9v15.5c0,.3.2.5.5.5h1.5c.3,0,.5-.2.5-.5v-19.2c0-.3-.2-.5-.5-.5Z"/>
    <path class="st0" d="M169.9,154.9h-11.7v-6.6h10.8c.3,0,.5-.2.5-.5v-1.3c0-.3-.2-.5-.5-.5h-10.8v-6.5h11.3c.3,0,.5-.2.5-.5v-1.4c0-.3-.2-.5-.5-.5h-13.3c-.3,0-.5.2-.5.5v19.2c0,.3.2.5.5.5h13.6c.3,0,.5-.2.5-.5v-1.4c0-.3-.2-.5-.5-.5Z"/>
    <path class="st0" d="M196.5,137.1h-6.5c-.3,0-.5.2-.5.5v19.2c0,.3.2.5.5.5h6.5c3,0,5.6-1,7.4-2.9,1.8-1.9,2.8-4.6,2.8-7.4h0c-.1-4.9-3.3-9.8-10.2-9.8ZM204.3,147c0,2.2-.7,4.3-2.2,5.8-1.4,1.4-3.3,2.2-5.6,2.2h-4.6v-15.5h4.6c5.3,0,7.7,3.8,7.8,7.5Z"/>
    <rect class="st0" x="226.3" y="137.1" width="2.4" height="20.1" rx=".5" ry=".5"/>
    <path class="st0" d="M258.2,139.1c2.2,0,4.2.8,5.7,2.3.2.2.4.2.6,0l1-.9c0,0,.2-.2.2-.3,0-.1,0-.3-.1-.3-1.9-1.9-4.5-3-7.3-3s-5.6,1-7.5,2.9c-1.9,1.9-2.9,4.6-2.9,7.5,0,5.1,3.2,10.2,10.3,10.2s5.4-1.1,7.3-3c0,0,.1-.2.1-.3,0-.1,0-.2-.1-.3l-1-.9c-.2-.2-.5-.2-.6,0-1.5,1.5-3.6,2.3-5.7,2.3-5.8,0-7.9-4.3-8-7.9,0-2.4.8-4.5,2.2-5.9,1.4-1.4,3.4-2.2,5.8-2.2Z"/>
    <rect class="st0" x="285.2" y="137.1" width="2.4" height="20.1" rx=".5" ry=".5"/>
    <path class="st0" d="M323.3,137.1h-1.5c-.3,0-.5.2-.5.5v14.6l-12.1-14.9c0-.1-.2-.2-.4-.2h-.6c-.3,0-.5.2-.5.5v19.2c0,.3.2.5.5.5h1.5c.3,0,.5-.2.5-.5v-14.6l12.1,14.9c0,.1.2.2.4.2h.6c.3,0,.5-.2.5-.5v-19.2c0-.3-.2-.5-.5-.5Z"/>
    <path class="st0" d="M353.1,137.4c0-.2-.2-.3-.4-.3h-1.6c-.2,0-.4.1-.4.3l-8.6,19.2c0,.1,0,.3,0,.4,0,.1.2.2.4.2h1.6c.2,0,.4-.1.4-.3l2-4.4h10.9l2,4.4c0,.2.2.3.4.3h1.6c.2,0,.3,0,.4-.2,0-.1,0-.3,0-.4l-8.6-19.2ZM356.3,150.2h-8.9l4.4-10.1,4.4,10.1Z"/>
    <path class="st0" d="M411.2,137.1h-6.5c-.3,0-.5.2-.5.5v19.2c0,.3.2.5.5.5h6.5c3,0,5.6-1,7.4-2.9,1.8-1.9,2.8-4.6,2.8-7.4h0c-.1-4.9-3.3-9.8-10.2-9.8ZM419,147c0,2.2-.7,4.3-2.2,5.8-1.4,1.4-3.3,2.2-5.6,2.2h-4.6v-15.5h4.6c5.3,0,7.7,3.8,7.8,7.5Z"/>
    <path class="st0" d="M454.8,154.9h-11.7v-6.6h10.8c.3,0,.5-.2.5-.5v-1.3c0-.3-.2-.5-.5-.5h-10.8v-6.5h11.3c.3,0,.5-.2.5-.5v-1.4c0-.3-.2-.5-.5-.5h-13.3c-.3,0-.5.2-.5.5v19.2c0,.3.2.5.5.5h13.6c.3,0,.5-.2.5-.5v-1.4c0-.3-.2-.5-.5-.5Z"/>
    <path class="st0" d="M487.3,154.9h-10.3v-17.3c0-.3-.2-.5-.5-.5h-1.5c-.3,0-.5.2-.5.5v19.2c0,.3.2.5.5.5h12.3c.3,0,.5-.2.5-.5v-1.4c0-.3-.2-.5-.5-.5Z"/>
    <path class="st0" d="M543.8,146.9c1.5-.9,2.4-2.3,2.4-4.1,0-4.2-3.7-5.7-6.8-5.7h-7.9c-.3,0-.5.2-.5.5v19.2c0,.3.2.5.5.5h7.9c4.7,0,7.4-2,7.4-5.5s-1.2-3.9-3-4.9ZM533.4,148.1h6.1c1.1,0,4.8.3,4.9,3.6,0,2.1-1.7,3.2-5.1,3.2h-5.9v-6.8ZM539.5,145.8h-6.1v-6.5h5.9c2.1,0,4.4.9,4.4,3.5s-1.4,3-4.3,3Z"/>
    <path class="st0" d="M580.3,154.9h-11.7v-6.6h10.8c.3,0,.5-.2.5-.5v-1.3c0-.3-.2-.5-.5-.5h-10.8v-6.5h11.3c.3,0,.5-.2.5-.5v-1.4c0-.3-.2-.5-.5-.5h-13.3c-.3,0-.5.2-.5.5v19.2c0,.3.2.5.5.5h13.6c.3,0,.5-.2.5-.5v-1.4c0-.3-.2-.5-.5-.5Z"/>
    <path class="st0" d="M616.1,137.1h-1.5c-.3,0-.5.2-.5.5v14.6l-12.1-14.9c0-.1-.2-.2-.4-.2h-.6c-.3,0-.5.2-.5.5v19.2c0,.3.2.5.5.5h1.5c.3,0,.5-.2.5-.5v-14.6l12.1,14.9c0,.1.2.2.4.2h.6c.3,0,.5-.2.5-.5v-19.2c0-.3-.2-.5-.5-.5Z"/>
    <path class="st0" d="M650.9,154.9h-11.7v-6.6h10.8c.3,0,.5-.2.5-.5v-1.3c0-.3-.2-.5-.5-.5h-10.8v-6.5h11.3c.3,0,.5-.2.5-.5v-1.4c0-.3-.2-.5-.5-.5h-13.3c-.3,0-.5.2-.5.5v19.2c0,.3.2.5.5.5h13.6c.3,0,.5-.2.5-.5v-1.4c0-.3-.2-.5-.5-.5Z"/>
    <path class="st0" d="M678.6,145.8h-.2c-3.3-.7-5.5-1.2-5.5-3.2,0-3.3,4.8-3.4,5.3-3.4,2.1,0,4.2.3,5.4,2.4.1.2.4.3.6.2l1.2-.7c.1,0,.2-.2.2-.3s0-.3,0-.4c-1.9-2.9-4.4-3.5-7.4-3.5s-5,.8-6.4,2.2c-.9,1-1.4,2.2-1.4,3.6,0,3.9,4,4.7,7.5,5.4,3.6.7,6,1.3,5.9,3.7,0,3.2-4,3.6-5.7,3.6s-5.1-1.1-6.1-3.2c-.1-.2-.4-.3-.6-.2l-1.3.7c-.1,0-.2.2-.2.3,0,.1,0,.2,0,.4,1.6,3.3,5.4,4.4,8.3,4.4s8-.4,8.1-5.8c0-4.5-4.1-5.2-7.7-5.9Z"/>
    <path class="st0" d="M712.9,145.8h-.2c-3.3-.7-5.5-1.2-5.5-3.2,0-3.3,4.8-3.4,5.3-3.4,2.1,0,4.2.3,5.4,2.4.1.2.4.3.6.2l1.2-.7c.1,0,.2-.2.2-.3s0-.3,0-.4c-1.9-2.9-4.4-3.5-7.4-3.5s-5,.8-6.4,2.2c-.9,1-1.4,2.2-1.4,3.6,0,3.9,4,4.7,7.5,5.4,3.6.7,6,1.3,5.9,3.7,0,3.2-4,3.6-5.7,3.6s-5.1-1.1-6.1-3.2c-.1-.2-.4-.3-.6-.2l-1.3.7c-.1,0-.2.2-.2.3,0,.1,0,.2,0,.4,1.6,3.3,5.4,4.4,8.3,4.4s8-.4,8.1-5.8c0-4.5-4.1-5.2-7.7-5.9Z"/>
    <path class="st0" d="M753.8,154.9h-11.7v-6.6h10.8c.3,0,.5-.2.5-.5v-1.3c0-.3-.2-.5-.5-.5h-10.8v-6.5h11.3c.3,0,.5-.2.5-.5v-1.4c0-.3-.2-.5-.5-.5h-13.3c-.3,0-.5.2-.5.5v19.2c0,.3.2.5.5.5h13.6c.3,0,.5-.2.5-.5v-1.4c0-.3-.2-.5-.5-.5Z"/>
    <path class="st0" d="M783.5,149.8c1.6-.2,3-.8,4-1.8,1.1-1.1,1.7-2.7,1.7-4.5,0-3.2-2.4-6.4-6.8-6.4h-8.5c-.3,0-.5.2-.5.5v19.2c0,.3.2.5.5.5h1.5c.3,0,.5-.2.5-.5v-6.8h4.6l6.5,7.1c0,0,.2.2.3.2h1.9c.2,0,.4-.1.4-.3s0-.4,0-.5l-6.1-6.6ZM786.7,143.5c0,1.9-.8,4.1-4.4,4.1h-6.3v-8.2h6.5c1.3,0,2.3.4,3.1,1.2.7.7,1.2,1.8,1.1,2.9Z"/>
    <path class="st0" d="M822.3,154.9h-11.7v-6.6h10.8c.3,0,.5-.2.5-.5v-1.3c0-.3-.2-.5-.5-.5h-10.8v-6.5h11.3c.3,0,.5-.2.5-.5v-1.4c0-.3-.2-.5-.5-.5h-13.3c-.3,0-.5.2-.5.5v19.2c0,.3.2.5.5.5h13.6c.3,0,.5-.2.5-.5v-1.4c0-.3-.2-.5-.5-.5Z"/>
  </g>
</svg>