<?xml version="1.0" encoding="UTF-8"?>
<svg id="Livello_1" xmlns="http://www.w3.org/2000/svg" version="1.1" viewBox="0 0 1080 1080">
  <!-- Generator: Adobe Illustrator 29.8.1, SVG Export Plug-In . SVG Version: 2.1.1 Build 2)  -->
  <path d="M685.79,438.65c35.97-78.25,68.87-148.98,100.9-220.1,7.8-17.31,16.57-30.75,38.17-25.62,20.77,4.94,17.12,23.08,18.76,37.63,7.91,70.17,15.7,140.36,22.86,210.62,2.36,23.16,12.42,32.99,36.88,31.64,33.52-1.86,67.23-.55,100.86-.13,13.44.16,25.84,2.28,25.16,20.73-.61,16.72-11.7,18.38-24.39,18.39-49.08.02-98.17-.3-147.24.16-20.2.19-25.68-10.29-27.67-28.65-6.7-62.13-14.94-124.09-22.77-186.09-.54-4.26-2.56-8.33-5.61-17.84-25.03,53.73-47.9,102.8-70.75,151.89-7.27,15.64-14.26,31.43-21.77,46.96-5.16,10.69-10.5,22.23-25.02,21.62-13.19-.55-17.4-11.74-21.99-21.57-25.76-55.14-51.3-110.38-76.99-165.55-4.02-8.62-8.41-17.06-15.45-31.3-13.38,49.91-8.13,94.71-14.9,138.19-3.76,24.11-3.78,48.74-9.03,72.83-3.11,14.3-10.74,19.47-24.62,19.45-120.87-.21-241.76.33-362.62-.7-18.68-.16-37.79-5.64-55.86-11.33-33.51-10.54-51.21-32.65-52.07-62.46-.96-33.01,16.09-54.98,44.76-68.56,39.62-18.78,82.59-19.91,125.19-21.81,45.3-2.03,90.71.94,135.94-6.31,42.74-6.86,67.46-22.88,69.51-49.45,2.07-26.87-18.46-48.75-58.64-62.51-62.09-21.27-130.47,1.24-170.39,56.39-7.63,10.54-16.56,18.61-29.43,11.02-11.63-6.85-9.17-18.89-5.08-29.35,5-12.79,12.74-24.09,22.69-33.68,57.08-55,163.61-66.08,230.96-24.09,33.54,20.91,53.16,49.19,47.18,90.53-5.89,40.7-34.27,58.81-69.92,71.28-44.38,15.52-89.96,9.59-135.09,10.19-42.86.57-85.21,3.18-126.54,15.14-20.67,5.99-43.87,14.47-43.12,38.71.83,26.83,26.96,32.9,48.43,35.08,30.64,3.12,61.7,2.4,92.59,2.45,82.7.14,165.43-1.11,248.12.18,26.94.42,35.75-11.29,35.64-35.37-.36-74.57,12.86-148.11,17.03-222.34.58-10.33,1.61-20.67,14.98-22.13,14.03-1.52,27.19-1.39,34.3,14.71,13.22,29.9,27.17,59.47,40.82,89.18,20.75,45.14,41.51,90.28,65.27,141.96"/>
  <g>
    <polygon points="50.59 610.54 75.94 610.54 124.62 723.11 125.03 723.11 174.11 610.54 198.86 610.54 198.86 754.15 181.82 754.15 181.82 633.67 181.41 633.67 129.9 754.15 119.55 754.15 68.03 633.67 67.63 633.67 67.63 754.15 50.59 754.15 50.59 610.54"/>
    <path d="M301.28,741.97c8.38,0,16.05-1.55,23.02-4.66,6.96-3.11,12.94-7.37,17.95-12.78,5-5.4,8.89-11.73,11.66-18.96,2.77-7.24,4.16-14.98,4.16-23.23s-1.39-15.99-4.16-23.22c-2.78-7.24-6.66-13.56-11.66-18.96-5-5.41-10.99-9.67-17.95-12.78-6.97-3.11-14.64-4.66-23.02-4.66s-16.05,1.55-23.02,4.66c-6.96,3.12-12.95,7.38-17.95,12.78-5,5.41-8.89,11.73-11.66,18.96-2.77,7.23-4.16,14.97-4.16,23.22s1.39,16,4.16,23.23,6.66,13.56,11.66,18.96c5,5.42,10.99,9.67,17.95,12.78,6.97,3.11,14.64,4.66,23.02,4.66M301.28,757.79c-10.95,0-20.99-1.89-30.12-5.68-9.13-3.78-17.03-9.03-23.73-15.72-6.69-6.7-11.9-14.67-15.61-23.94-3.73-9.25-5.58-19.3-5.58-30.12s1.85-20.85,5.58-30.12c3.71-9.25,8.92-17.23,15.61-23.93,6.7-6.69,14.6-11.93,23.73-15.72s19.17-5.68,30.12-5.68,20.99,1.89,30.12,5.68,17.03,9.03,23.73,15.72c6.69,6.7,11.9,14.68,15.61,23.93,3.72,9.27,5.58,19.3,5.58,30.12s-1.86,20.87-5.58,30.12c-3.71,9.27-8.92,17.24-15.61,23.94-6.7,6.69-14.6,11.94-23.73,15.72-9.13,3.79-19.17,5.68-30.12,5.68"/>
    <polygon points="403.7 610.54 425.2 610.54 508.36 729.8 508.77 729.8 508.77 610.54 525.8 610.54 525.8 754.15 504.3 754.15 421.15 634.88 420.74 634.88 420.74 754.15 403.7 754.15 403.7 610.54"/>
    <path d="M575.9,738.33h32.46c8.24,0,15.88-1.08,22.92-3.25,7.03-2.16,13.11-5.51,18.25-10.04,5.14-4.52,9.19-10.31,12.17-17.34,2.97-7.03,4.46-15.49,4.46-25.35s-1.5-18.32-4.46-25.36c-2.98-7.02-7.03-12.8-12.17-17.34s-11.22-7.88-18.25-10.04c-7.04-2.16-14.68-3.24-22.92-3.24h-32.46v111.96h0ZM558.86,610.54h55.17c4.73,0,9.73.55,15.01,1.62,5.28,1.09,10.51,2.81,15.72,5.17,5.21,2.37,10.21,5.45,15.01,9.23,4.8,3.79,9.03,8.35,12.68,13.69,3.65,5.35,6.56,11.49,8.72,18.46,2.16,6.97,3.24,14.85,3.24,23.64s-1.08,16.67-3.24,23.63c-2.17,6.96-5.08,13.11-8.72,18.46-3.65,5.34-7.88,9.9-12.68,13.69s-9.8,6.86-15.01,9.22c-5.2,2.37-10.44,4.1-15.72,5.17-5.28,1.08-10.28,1.63-15.01,1.63h-55.17v-143.6h0Z"/>
    <path d="M766.15,632.45h-.41l-29.82,70.58h58.62l-28.4-70.58h.01ZM758.44,610.54h16.02l61.05,143.6h-19.88l-14.6-35.29h-71.8l-14.81,35.29h-19.27l63.28-143.6h0Z"/>
    <polygon points="854.58 610.54 876.08 610.54 959.24 729.8 959.64 729.8 959.64 610.54 976.67 610.54 976.67 754.15 955.18 754.15 872.02 634.88 871.61 634.88 871.61 754.15 854.58 754.15 854.58 610.54"/>
    <rect x="1012.37" y="610.54" width="17.03" height="143.6"/>
    <path d="M117.85,857.14l-18.18-44.77h-.28l-18.46,44.77h36.92ZM94.16,795.29h11.99l41.73,97.53h-15.43l-9.78-24.11h-46.42l-9.64,24.11h-15.43l42.98-97.53h0Z"/>
    <path d="M173.78,838.27h17.35c2.57,0,5.12-.21,7.65-.62s4.77-1.17,6.75-2.27c1.97-1.11,3.56-2.69,4.75-4.76,1.19-2.06,1.79-4.75,1.79-8.05s-.6-6-1.79-8.06c-1.19-2.06-2.78-3.65-4.75-4.75s-4.22-1.86-6.75-2.27c-2.53-.42-5.08-.63-7.65-.63h-17.35v31.41h0ZM160.55,795.29h34.3c6.25,0,11.39.85,15.43,2.55s7.24,3.85,9.58,6.47,3.96,5.56,4.88,8.82,1.38,6.4,1.38,9.44-.55,6.13-1.65,9.02c-1.11,2.9-2.69,5.51-4.75,7.85-2.07,2.34-4.6,4.32-7.57,5.92-2.99,1.61-6.32,2.59-9.99,2.96l27.69,44.49h-16.53l-24.79-42.98h-14.74v42.98h-13.22v-97.53h-.02,0Z"/>
    <path d="M257.94,838.27h17.35c2.57,0,5.12-.21,7.65-.62s4.77-1.17,6.75-2.27c1.97-1.11,3.56-2.69,4.75-4.76,1.19-2.06,1.79-4.75,1.79-8.05s-.6-6-1.79-8.06-2.78-3.65-4.75-4.75-4.22-1.86-6.75-2.27c-2.53-.42-5.08-.63-7.65-.63h-17.35v31.41h0ZM244.71,795.29h34.3c6.25,0,11.39.85,15.43,2.55,4.04,1.7,7.24,3.85,9.58,6.47s3.96,5.56,4.88,8.82,1.38,6.4,1.38,9.44-.55,6.13-1.65,9.02c-1.11,2.9-2.69,5.51-4.75,7.85-2.07,2.34-4.59,4.32-7.58,5.92-2.98,1.61-6.31,2.59-9.98,2.96l27.69,44.49h-16.53l-24.79-42.98h-14.74v42.98h-13.22v-97.53h-.02Z"/>
    <polygon points="328.87 795.29 391.82 795.29 391.82 807.69 342.1 807.69 342.1 836.76 388.38 836.76 388.38 849.15 342.1 849.15 342.1 880.42 394.3 880.42 394.3 892.82 328.87 892.82 328.87 795.29"/>
    <path d="M424.06,880.42h16.67c5.6,0,10.9-.76,15.91-2.27,5-1.52,9.39-3.79,13.16-6.82,3.76-3.03,6.75-6.82,8.95-11.36s3.31-9.85,3.31-15.91c0-3.12-.51-6.77-1.52-10.95-1.01-4.18-2.92-8.15-5.72-11.91s-6.68-6.95-11.64-9.58c-4.96-2.62-11.38-3.92-19.28-3.92h-19.83v72.73h-.01ZM410.83,795.29h34.02c6.89,0,12.92.78,18.11,2.34,5.19,1.56,9.69,3.65,13.5,6.27s6.98,5.62,9.5,9.02c2.53,3.4,4.52,6.89,6,10.47,1.47,3.58,2.52,7.16,3.17,10.74.64,3.58.96,6.89.96,9.92,0,6.25-1.14,12.29-3.44,18.12-2.29,5.84-5.7,11.02-10.19,15.57-4.5,4.54-10.08,8.19-16.74,10.95s-14.34,4.13-23.07,4.13h-31.82v-97.53h0Z"/>
    <path d="M569.38,857.14l-18.18-44.77h-.28l-18.46,44.77h36.92ZM545.68,795.29h11.98l41.74,97.53h-15.43l-9.78-24.11h-46.42l-9.64,24.11h-15.43l42.98-97.53h0Z"/>
    <polygon points="611.11 795.29 630.81 795.29 661.8 869.12 662.35 869.12 693.07 795.29 712.76 795.29 712.76 892.82 699.55 892.82 699.55 812.65 699.27 812.65 666.35 892.82 657.54 892.82 624.61 812.65 624.34 812.65 624.34 892.82 611.11 892.82 611.11 795.29"/>
    <polygon points="736.87 795.29 799.82 795.29 799.82 807.69 750.1 807.69 750.1 836.76 796.38 836.76 796.38 849.15 750.1 849.15 750.1 880.42 802.3 880.42 802.3 892.82 736.87 892.82 736.87 795.29"/>
    <polygon points="821.03 795.29 838.39 795.29 892.11 875.46 892.38 875.46 892.38 795.29 905.61 795.29 905.61 892.82 888.8 892.82 834.53 812.65 834.26 812.65 834.26 892.82 821.03 892.82 821.03 795.29"/>
    <polygon points="951.06 807.69 919.66 807.69 919.66 795.29 995.69 795.29 995.69 807.69 964.29 807.69 964.29 892.82 951.06 892.82 951.06 807.69"/>
    <rect x="1009.74" y="795.29" width="13.22" height="97.53"/>
  </g>
</svg>